<svg xmlns="http://www.w3.org/2000/svg" viewBox="0 0 349.68 115.31"><defs><style>.cls-1{fill:#fff;}</style></defs><g id="Capa_2" data-name="Capa 2"><g id="Tect"><rect class="cls-1" x="290.69" y="84.38" width="26.66" height="26.66" rx="3" transform="translate(158.14 -186.36) rotate(45)"/><path class="cls-1" d="M0,.41A58.29,58.29,0,0,1,6.37.83,62.34,62.34,0,0,1,14.64,0C27.45,0,36.71,5.79,36.71,14.47c0,6.2-4.88,10.75-13.81,12.4,11.33,1.66,19,7.78,19,16.54,0,9.51-6.7,15.3-23.23,15.3-1.49,0-5.79-.09-7.53-.17-3.39-.16-9.09-.25-9.09-6.61V8.35C2.07,4.8,1.74,1,0,1ZM9.1,2V25.8a43.79,43.79,0,0,0,6.36.49c9.18,0,13.81-4.46,13.81-11.66,0-8.18-5.87-13.39-14.06-13.39A35.37,35.37,0,0,0,9.1,2Zm0,26.38V50.27c0,2.57.16,5.38.9,6.7a60.85,60.85,0,0,0,7.53.5c11.16,0,16.95-5.13,16.95-13.89,0-9.84-7.11-16-16.95-16A53.57,53.57,0,0,0,9.1,28.36Z"/><path class="cls-1" d="M53.5,49.53c0-9.18,13.48-11.91,20.67-13.64V31c0-6-1.24-11.17-6.45-11.17A11.29,11.29,0,0,0,57,27l-.58-.42A11.91,11.91,0,0,1,68,19c6.28,0,12.4,3.88,12.4,11.74V50.27c0,3.56.33,7.45,2.07,7.45v.57c-2.81,0-7.19-.82-8.1-5.54-2.15,3.06-5.13,6-10.51,6C57.22,58.71,53.5,54.33,53.5,49.53Zm13.06,7.61c6,0,7.61-8,7.61-13.56V36.71C67.72,39,60,41.26,60,49.45,60,54.49,62.93,57.14,66.56,57.14Z"/><path class="cls-1" d="M94.84,20v-.58c2.9,0,7.36.91,8.19,5.87,2.4-5.21,9-9,17-4l-.25.58c-9.84-4.3-16.7,4.88-16.7,14.55V50.27c0,3.56.33,7.45,2.07,7.45v.57c-3.14,0-8.27-1.07-8.27-7.44V27.45C96.91,23.9,96.58,20,94.84,20Z"/><path class="cls-1" d="M145,19c5.87,0,10.09,3.14,11.83,7.6l-.58.42a11.41,11.41,0,0,0-10.67-7.2c-7.61,0-11.9,7.36-11.9,17.78,0,10.67,4.29,17.12,11.9,17.12,4.72,0,8.6-2.56,11.91-6.12l.5.41c-3.48,5.3-8.94,9.68-15.8,9.68-9.26,0-14.72-7.44-14.72-19.27S134,19,145,19Z"/><path class="cls-1" d="M183.48,19c9.59,0,14,7.36,14,16.12H173c-.08.83-.08,1.66-.08,2.57,0,10.66,4.3,17,11.91,17,4.71,0,8.6-2.56,11.9-6.12l.5.41c-3.47,5.3-8.93,9.68-15.79,9.68-9.27,0-14.72-7.44-14.72-19.27S172.9,19,183.48,19ZM193.74,33.9c-.33-7.69-3.39-13.64-10.42-13.64-5.87,0-9.43,5.29-10.26,13.64Z"/><path class="cls-1" d="M215.65,50.27c0,3.56.33,7.45,2.06,7.45v.57c-3.14,0-8.26-1.07-8.26-7.44V8c0-3.56-.34-7.44-2.07-7.44V0c3.14,0,8.27,1.07,8.27,7.44Z"/><path class="cls-1" d="M247.07,19c11.49,0,18.27,9.51,18.27,19.59,0,11.83-5.87,20.1-18.19,20.1s-18.27-8.27-18.27-20.1S235.57,19,247.07,19Zm.08,38.45c8.35,0,11.58-7.69,11.58-18.86,0-9.5-4.3-18.35-11.75-18.35s-11.49,7.27-11.49,18.35S238.8,57.47,247.15,57.47Z"/><path class="cls-1" d="M276.5,20v-.58c2.9,0,7.53.91,8.19,6.2C288.41,21.83,292.05,19,297,19c6.95,0,10.5,3.55,10.5,8.76V50.27c0,3.56.33,7.45,2.07,7.45v.57c-3.14,0-8.27-1.07-8.27-7.44V28.44c0-5.7-2.89-8.18-5.79-8.18-7,0-10.75,10-10.75,16.2V50.27c0,3.56.33,7.45,2.07,7.45v.57c-3.14,0-8.27-1.07-8.27-7.44V27.45C278.57,23.9,278.24,20,276.5,20Z"/><path class="cls-1" d="M320.74,49.53c0-9.18,13.48-11.91,20.67-13.64V31c0-6-1.24-11.17-6.45-11.17A11.29,11.29,0,0,0,324.21,27l-.58-.42A11.92,11.92,0,0,1,335.21,19c6.29,0,12.4,3.88,12.4,11.74V50.27c0,3.56.34,7.45,2.07,7.45v.57c-2.81,0-7.19-.82-8.1-5.54-2.15,3.06-5.13,6-10.5,6C324.46,58.71,320.74,54.33,320.74,49.53Zm13.07,7.61c5.95,0,7.6-8,7.6-13.56V36.71C335,39,327.19,41.26,327.19,49.45,327.19,54.49,330.17,57.14,333.81,57.14Z"/></g></g></svg>