<svg xmlns="http://www.w3.org/2000/svg" viewBox="0 0 94.96 94.96"><defs><style>.cls-1{fill:#6f8a30;}</style></defs><g id="Capa_2" data-name="Capa 2"><g id="Tect"><path class="cls-1" d="M55.64,54.46H55c0,.77,0,1.54,0,2.32,1.24-.06,2.58-.18,3.53-.26,0-.59,0-1.31,0-2.06Z"/><path class="cls-1" d="M42,57.32h-.07c-.8-.12-2.45-.37-2.93,0-.52,1.14-.25,6.38-.14,8.37,0,.46,0,.87.06,1.23h3.49c0-1.78-.15-3.94-.25-6C42.1,59.59,42,58.38,42,57.32Z"/><path class="cls-1" d="M68.52,63.84c0-.4,0-.8,0-1.19,0-1.87-.19-3.83-.37-5.91-.36-4-.73-8.18.07-12-5.24-.08-10.48-.21-15.61-.34-9.07-.23-18.38-.46-27.6-.4,0,6.15.12,11.23.36,15.89,0,.66.11,1.39.19,2.16a21.78,21.78,0,0,1,.19,4.84H36c0-.32,0-.68-.06-1.07-.32-6.18-.27-9.34,1-10.56,1.45-1.47,3.8-1.11,5.51-.85.44.06.85.12,1.11.13A1.49,1.49,0,0,1,44.91,56c0,1.28.11,3,.2,4.72.1,2.16.21,4.36.25,6.19H68.59A25.81,25.81,0,0,1,68.52,63.84Zm-7-5.9a1.48,1.48,0,0,1-1.32,1.38c-.16,0-4,.44-6.53.45h0a1.47,1.47,0,0,1-1.47-1.39c-.08-1.38-.07-2.79-.06-4.14V53a1.48,1.48,0,0,1,1.48-1.48,2.2,2.2,0,0,1,.36,0,2,2,0,0,1,.35,0h1.36c1.43,0,2.91,0,4.36,0a1.47,1.47,0,0,1,1.41,1.33A40.35,40.35,0,0,1,61.47,57.94Z"/><path class="cls-1" d="M72.09,31.2c-1-1.75-1-1.75-2.82-2.15a43,43,0,0,0-9.62-.4c-1.18,0-2.32.08-3.41.08-5.17,0-10.53-.18-15.26-.35-2.17-.08-6.9-.18-10-.24l0,0a.72.72,0,0,1-.26,1c-1.68,1-2.87,3.07-4,5.08-.53.94-1,1.82-1.59,2.61-.17.23-.36.48-.56.73a7.07,7.07,0,0,0-1.13,1.77.73.73,0,0,1-.7.52.57.57,0,0,1-.22,0,.73.73,0,0,1-.48-.92,7.85,7.85,0,0,1,1.37-2.24c.18-.23.36-.46.51-.67.52-.73,1-1.59,1.52-2.49,1.18-2.07,2.41-4.19,4.25-5.41l-1.46,0c-3,1.52-5.4,6.86-7.21,10.78-.37.79-.71,1.54-1,2.22Q23.83,41,27.73,41c1.58,0,3.15,0,4.73,0a1.28,1.28,0,0,1,0-.19c.31-1.11.7-2.29,1.12-3.55a38.29,38.29,0,0,0,2-7.42.73.73,0,0,1,.82-.64.74.74,0,0,1,.65.81,39.83,39.83,0,0,1-2,7.72c-.39,1.16-.75,2.26-1,3.28,1.29,0,2.58,0,3.86.06.27-1.21.47-2.57.68-4a45.92,45.92,0,0,1,1.38-6.89.73.73,0,0,1,.92-.48.75.75,0,0,1,.49.93A43.72,43.72,0,0,0,40,37.33c-.2,1.35-.39,2.63-.63,3.81l2.89.06a.41.41,0,0,1-.05-.09,8.51,8.51,0,0,1,.11-3.66l0-.24c.09-.62.21-1.24.32-1.88a24,24,0,0,0,.54-4.85.74.74,0,1,1,1.47-.05,24.27,24.27,0,0,1-.56,5.16c-.11.62-.22,1.23-.31,1.83l0,.25a12.25,12.25,0,0,0-.22,2.86.73.73,0,0,1-.1.69l6.09.14a.71.71,0,0,1-.25-.54c0-2.06,0-4.2,0-6.34V31.29a.74.74,0,1,1,1.47,0v3.19c0,2.14,0,4.27,0,6.33a.74.74,0,0,1-.28.58l2.24,0,.89,0a.75.75,0,0,1-.34-.36,6.9,6.9,0,0,1-.29-2.35v-.23c0-.83,0-1.66,0-2.49,0-1.55-.07-3.16-.07-4.74a.74.74,0,1,1,1.48,0c0,1.57,0,3.16.06,4.71,0,.83,0,1.66,0,2.49v.25a6,6,0,0,0,.18,1.8.73.73,0,0,1-.37.94c4.34.11,8.75.21,13.17.29-.39-1.82-1-3.64-1.55-5.41A55,55,0,0,1,64.27,31a.74.74,0,0,1,1.45-.32,52.61,52.61,0,0,0,1.53,5.25,52.33,52.33,0,0,1,1.67,5.89c2.27,0,4.54.06,6.8.07a36.63,36.63,0,0,0-3.45-10.31ZM33.18,29.82a15.12,15.12,0,0,0-1.76,3.92,24.26,24.26,0,0,1-1.05,2.74c-.21.45-.46.9-.71,1.35a17.27,17.27,0,0,0-.91,1.83.76.76,0,0,1-.69.47.66.66,0,0,1-.27-.06.74.74,0,0,1-.41-1,19.4,19.4,0,0,1,1-2c.23-.42.47-.85.67-1.27a24.81,24.81,0,0,0,1-2.58A15.43,15.43,0,0,1,32,29a.73.73,0,1,1,1.18.87ZM47.5,38.05c0,.35,0,1.07-.08,1.65,0,.33,0,.61,0,.72a.7.7,0,0,1-.29.63.73.73,0,0,1-.44.15.71.71,0,0,1-.59-.3c-.17-.22-.17-.22-.11-1.29,0-.55.08-1.24.08-1.58a57.43,57.43,0,0,1,.48-7.44.74.74,0,0,1,.84-.63.73.73,0,0,1,.62.83A56.39,56.39,0,0,0,47.5,38.05Zm11.24,3a.8.8,0,0,1-.3.06.74.74,0,0,1-.67-.44c-.7-1.61-.79-4-.88-6.22A31.31,31.31,0,0,0,56.64,31a.74.74,0,1,1,1.46-.22,32.36,32.36,0,0,1,.26,3.54,18,18,0,0,0,.76,5.69A.74.74,0,0,1,58.74,41Zm4,.42h0a.75.75,0,0,1-.74-.71,4.65,4.65,0,0,0-.29-1.29c-.05-.19-.11-.37-.16-.56a31.27,31.27,0,0,1-1.21-7.7.74.74,0,0,1,.72-.75h0a.74.74,0,0,1,.74.73A29.87,29.87,0,0,0,63,38.49l.15.51a6.06,6.06,0,0,1,.36,1.67A.75.75,0,0,1,62.76,41.44Zm9.27,0a.77.77,0,0,1-.4.1.94.94,0,0,1-.34-.07c-.47-.23-.65-.73-1-2.82l-.07-.37c-.17-.91-.39-1.83-.64-2.73-.07-.23-.14-.49-.21-.76a11.62,11.62,0,0,0-1.59-4,.74.74,0,1,1,1.11-1,12.16,12.16,0,0,1,1.9,4.57q.1.4.21.75c.26.94.49,1.9.67,2.86,0,.09,0,.23.07.4.06.36.24,1.39.37,1.8A.74.74,0,0,1,72,41.46Z"/><path class="cls-1" d="M47.48,0A47.48,47.48,0,1,0,95,47.48,47.48,47.48,0,0,0,47.48,0ZM78.64,44.28a1.49,1.49,0,0,1-1.14.53c-2.07,0-4.16,0-6.25,0-.88,3.55-.52,7.69-.16,11.71.18,2.05.37,4.16.38,6.15,0,.41,0,.83,0,1.24A14.57,14.57,0,0,0,71.78,68a1.48,1.48,0,0,1-1.42,1.87H23.89a1.48,1.48,0,0,1-1.36-2c.56-1.32.32-3.49.1-5.41-.09-.82-.17-1.6-.21-2.34-.23-4.7-.35-9.83-.36-16-1.52,0-3,.05-4.56.09a1.51,1.51,0,0,1-1.32-.74,1.49,1.49,0,0,1,0-1.51,45.56,45.56,0,0,0,2.1-4.21c2.18-4.73,4.89-10.61,9-12.38a1.47,1.47,0,0,1,.62-.13c.09,0,9.76.18,13.19.3,4.7.17,10,.35,15.15.35,1,0,2.17,0,3.32-.07a44.52,44.52,0,0,1,10.33.46c3,.64,3.4,1,4.79,3.63l.19.34A42.93,42.93,0,0,1,79,43.07,1.5,1.5,0,0,1,78.64,44.28Z"/></g></g></svg>