<svg xmlns="http://www.w3.org/2000/svg" viewBox="0 0 241.69 115.31"><defs><style>.cls-1{fill:#fff;}</style></defs><g id="Capa_2" data-name="Capa 2"><g id="Tect"><rect class="cls-1" x="107.72" y="84.38" width="26.66" height="26.66" rx="3" transform="translate(104.55 -56.98) rotate(45)"/><path class="cls-1" d="M0,28.94C0,11.66,11.33,0,28.28,0,39.86,0,44.82,5.54,47.46,8.35l-.58.58a22.64,22.64,0,0,0-17-7.69c-14.39,0-22.41,11-22.41,27.7,0,14.22,9.26,24.72,21.67,24.72A36.15,36.15,0,0,0,44,50.19V35.31c0-3.06-.25-4.47-1-5.05H30.51V28.61H41.92c6.7,0,9.1,1.49,9.1,5.7v16c0,3.56.33,7.45,2.07,7.45v.57c-2.9,0-8-.91-8.93-5.87-5.38,3.81-11.66,6.29-16.71,6.29C10.58,58.71,0,47.3,0,28.94Z"/><path class="cls-1" d="M73.76,50.27c0,3.56.33,7.45,2.06,7.45v.57c-3.14,0-8.26-1.07-8.26-7.44V27.45c0-3.55-.34-7.44-2.07-7.44v-.58c3.14,0,8.27,1.08,8.27,7.44ZM70.28.41a3.92,3.92,0,0,1,4.14,4.14,4.14,4.14,0,0,1-8.27,0A3.91,3.91,0,0,1,70.28.41Z"/><path class="cls-1" d="M88.23,20v-.58c2.89,0,7.36.91,8.18,5.87,2.4-5.21,9-9,17-4l-.25.58c-9.84-4.3-16.7,4.88-16.7,14.55V50.27c0,3.56.33,7.45,2.06,7.45v.57c-3.14,0-8.27-1.07-8.27-7.44V27.45C90.29,23.9,90,20,88.23,20Z"/><path class="cls-1" d="M139.08,19c11.49,0,18.27,9.51,18.27,19.59,0,11.83-5.87,20.1-18.19,20.1s-18.27-8.27-18.27-20.1S127.58,19,139.08,19Zm.08,38.45c8.35,0,11.58-7.69,11.58-18.86,0-9.5-4.3-18.35-11.74-18.35s-11.5,7.27-11.5,18.35S130.81,57.47,139.16,57.47Z"/><path class="cls-1" d="M168.52,20v-.58c2.89,0,7.52.91,8.18,6.2C180.42,21.83,184.06,19,189,19c6.95,0,10.5,3.55,10.5,8.76V50.27c0,3.56.33,7.45,2.07,7.45v.57c-3.14,0-8.27-1.07-8.27-7.44V28.44c0-5.7-2.89-8.18-5.79-8.18-7,0-10.75,10-10.75,16.2V50.27c0,3.56.34,7.45,2.07,7.45v.57c-3.14,0-8.27-1.07-8.27-7.44V27.45C170.58,23.9,170.25,20,168.52,20Z"/><path class="cls-1" d="M212.75,49.53c0-9.18,13.48-11.91,20.67-13.64V31c0-6-1.24-11.17-6.45-11.17A11.29,11.29,0,0,0,216.22,27l-.57-.42A11.9,11.9,0,0,1,227.22,19c6.29,0,12.4,3.88,12.4,11.74V50.27c0,3.56.34,7.45,2.07,7.45v.57c-2.81,0-7.19-.82-8.1-5.54-2.15,3.06-5.13,6-10.5,6C216.47,58.71,212.75,54.33,212.75,49.53Zm13.07,7.61c6,0,7.6-8,7.6-13.56V36.71C227,39,219.2,41.26,219.2,49.45,219.2,54.49,222.18,57.14,225.82,57.14Z"/></g></g></svg>