<svg xmlns="http://www.w3.org/2000/svg" viewBox="0 0 200.26 115.31"><defs><style>.cls-1{fill:#fff;}</style></defs><g id="Capa_2" data-name="Capa 2"><g id="Tect"><rect class="cls-1" x="85.98" y="84.38" width="26.66" height="26.66" rx="3" transform="translate(98.18 -41.6) rotate(45)"/><path class="cls-1" d="M0,.41C3.14.41,9.1,1,9.1,5V53.66a3.48,3.48,0,0,1-1.66,3H30.68v1.65H0v-.57c1.74,0,2.07-3.81,2.07-7.36v-42C2.07,4.8,1.74,1,0,1Z"/><path class="cls-1" d="M48.45,50.27c0,3.56.33,7.45,2.07,7.45v.57c-3.14,0-8.27-1.07-8.27-7.44V8c0-3.56-.33-7.44-2.07-7.44V0c3.15,0,8.27,1.07,8.27,7.44Z"/><path class="cls-1" d="M78.47,19c9.59,0,14,7.36,14,16.12H68a23.77,23.77,0,0,0-.09,2.57c0,10.66,4.3,17,11.91,17,4.71,0,8.6-2.56,11.91-6.12l.49.41c-3.47,5.3-8.93,9.68-15.79,9.68-9.26,0-14.72-7.44-14.72-19.27S67.88,19,78.47,19ZM88.72,33.9c-.33-7.69-3.39-13.64-10.42-13.64-5.87,0-9.42,5.29-10.25,13.64Z"/><path class="cls-1" d="M110.63,50.27c0,3.56.33,7.45,2.07,7.45v.57c-3.14,0-8.27-1.07-8.27-7.44V27.45c0-3.55-.33-7.44-2.07-7.44v-.58c3.15,0,8.27,1.08,8.27,7.44ZM107.16.41a3.91,3.91,0,0,1,4.13,4.14,4.13,4.13,0,0,1-8.26,0A3.91,3.91,0,0,1,107.16.41Z"/><path class="cls-1" d="M140.48,19c5.54,0,9.1,2.06,11.41,5.54V8c0-3.56-.33-7.44-2.06-7.44V0c3.14,0,8.26,1.07,8.26,7.44V50.27c0,3.56.34,7.45,2.07,7.45v.57c-2.73,0-7-.82-8-5.29-2.23,3.56-5.79,5.71-11.74,5.71-11.74,0-16.54-8.27-16.54-20.1C123.86,28.53,129.57,19,140.48,19Zm-.08,38.45c6.78,0,10.67-5.79,11.49-14.56v-8.1c-.74-8.93-5.29-14.55-11.32-14.55-6.87,0-10.09,8.85-10.09,18.35C130.48,49.78,132.63,57.47,140.4,57.47Z"/><path class="cls-1" d="M171.32,49.53c0-9.18,13.48-11.91,20.68-13.64V31c0-6-1.24-11.17-6.45-11.17A11.28,11.28,0,0,0,174.8,27l-.58-.42A11.91,11.91,0,0,1,185.79,19c6.29,0,12.41,3.88,12.41,11.74V50.27c0,3.56.33,7.45,2.06,7.45v.57c-2.81,0-7.19-.82-8.1-5.54-2.15,3.06-5.12,6-10.5,6C175,58.71,171.32,54.33,171.32,49.53Zm13.07,7.61c6,0,7.61-8,7.61-13.56V36.71c-6.45,2.32-14.23,4.55-14.23,12.74C177.77,54.49,180.75,57.14,184.39,57.14Z"/></g></g></svg>