<svg xmlns="http://www.w3.org/2000/svg" viewBox="0 0 299.16 117.88"><defs><style>.cls-1{fill:#fff;}</style></defs><g id="Capa_2" data-name="Capa 2"><g id="Tect"><rect class="cls-1" x="135.43" y="86.94" width="26.66" height="26.66" rx="3" transform="translate(114.47 -75.82) rotate(45)"/><path class="cls-1" d="M0,3a58.17,58.17,0,0,1,6.37.41,64.06,64.06,0,0,1,8.27-.83c12.81,0,22.07,6.62,22.07,16.62,0,9.1-7.93,14.89-22,14.89-1.57,0-3.64-.09-5.62-.25V52.59c0,3.55.33,7.44,2.06,7.44v.83c-3.39-.17-9.09-.25-9.09-6.62V10.91c0-3.55-.33-7.35-2.07-7.35ZM9.1,4.55V32.33a43.86,43.86,0,0,0,6.36.5c9.18,0,13.81-5.13,13.81-13.48C29.27,9.84,23.4,3.8,15.21,3.8A34.5,34.5,0,0,0,9.1,4.55Z"/><path class="cls-1" d="M60.94,21.58c9.59,0,14,7.36,14,16.13H50.44c-.08.82-.08,1.65-.08,2.56,0,10.67,4.3,17,11.9,17,4.72,0,8.6-2.56,11.91-6.12l.5.42c-3.48,5.29-8.93,9.67-15.8,9.67-9.26,0-14.72-7.44-14.72-19.26S50.36,21.58,60.94,21.58ZM71.19,36.47c-.33-7.69-3.39-13.65-10.42-13.65-5.87,0-9.42,5.29-10.25,13.65Z"/><path class="cls-1" d="M84.84,22.57V22c2.89,0,7.36.91,8.18,5.88,2.4-5.21,9-9,17-4l-.25.58C100,20.18,93.11,29.35,93.11,39V52.84c0,3.55.33,7.44,2.06,7.44v.58c-3.14,0-8.27-1.08-8.27-7.44V30C86.9,26.46,86.57,22.57,84.84,22.57Z"/><path class="cls-1" d="M118.74,22c2.81,0,7.11.83,8.1,5.46,2.23-3.72,5.87-5.87,11.58-5.87,10.91,0,16.62,9.51,16.62,19.6,0,11.82-4.8,20.09-16.54,20.09-5.71,0-9.26-2-11.49-5.37V69.54c0,3.56.33,7.44,2.06,7.44v.58c-3.14,0-8.26-1.07-8.26-7.44V30c0-3.56-.34-7.45-2.07-7.45ZM138.5,60c7.77,0,9.92-7.69,9.92-18.85,0-9.51-3.22-18.36-10.09-18.36-6,0-10.58,5.62-11.32,14.55v8.11C127.83,54.24,131.72,60,138.5,60Z"/><path class="cls-1" d="M174.47,52.84c0,3.55.33,7.44,2.07,7.44v.58c-3.15,0-8.27-1.08-8.27-7.44V30c0-3.56-.33-7.45-2.07-7.45V22c3.14,0,8.27,1.08,8.27,7.45ZM171,3a3.9,3.9,0,0,1,4.13,4.13,4.14,4.14,0,1,1-8.27,0A3.91,3.91,0,0,1,171,3Z"/><path class="cls-1" d="M188.94,22.57V22c2.89,0,7.52.91,8.18,6.21,3.73-3.81,7.36-6.62,12.33-6.62,6.94,0,10.5,3.56,10.5,8.77V52.84c0,3.55.33,7.44,2.06,7.44v.58c-3.14,0-8.26-1.08-8.26-7.44V31c0-5.71-2.9-8.19-5.79-8.19-7,0-10.75,10-10.75,16.21V52.84c0,3.55.33,7.44,2.06,7.44v.58c-3.14,0-8.26-1.08-8.26-7.44V30C191,26.46,190.67,22.57,188.94,22.57Z"/><path class="cls-1" d="M239.13,26.63l10.25,28L260.3,22h3.31L244.17,77.56h-2.39l5.54-16.7h-2L233.84,30c-1.24-3.31-2.57-7.12-4-7.45V22C233,22,237.48,22,239.13,26.63Z"/><path class="cls-1" d="M270.22,52.09c0-9.18,13.48-11.9,20.67-13.64V33.57c0-5.95-1.24-11.16-6.45-11.16a11.28,11.28,0,0,0-10.75,7.19l-.57-.41a11.9,11.9,0,0,1,11.57-7.61c6.29,0,12.4,3.89,12.4,11.74V52.84c0,3.55.34,7.44,2.07,7.44v.58c-2.81,0-7.19-.83-8.1-5.54-2.15,3.06-5.13,6-10.5,6C273.94,61.27,270.22,56.89,270.22,52.09Zm13.07,7.61c5.95,0,7.6-8,7.6-13.56V39.28c-6.45,2.31-14.22,4.54-14.22,12.73C276.67,57.05,279.65,59.7,283.29,59.7Zm7.77-46.39L278.57,3.22l3-3.22,10.5,12.24Z"/></g></g></svg>