<svg xmlns="http://www.w3.org/2000/svg" viewBox="0 0 356.46 114.9"><defs><style>.cls-1{fill:#fff;}</style></defs><g id="Capa_2" data-name="Capa 2"><g id="Tect"><rect class="cls-1" x="166.47" y="83.97" width="26.66" height="26.66" rx="3" transform="translate(121.46 -98.64) rotate(45)"/><path class="cls-1" d="M0,0H43.25V1.65H22.33a6.39,6.39,0,0,1,2.81,5.71v42.5c0,3.56.33,7.44,2.06,7.44v.58c-3.14,0-9.09-1.07-9.09-7.44V7.94a19.2,19.2,0,0,0-.75-6.29H0Z"/><path class="cls-1" d="M44.57,49.12c0-9.18,13.48-11.91,20.67-13.65V30.59c0-5.95-1.24-11.16-6.45-11.16A11.29,11.29,0,0,0,48,26.62l-.58-.41A11.92,11.92,0,0,1,59,18.6c6.28,0,12.4,3.89,12.4,11.75V49.86c0,3.56.33,7.44,2.07,7.44v.58c-2.81,0-7.19-.83-8.1-5.54-2.15,3.06-5.13,5.95-10.5,5.95C48.29,58.29,44.57,53.91,44.57,49.12Zm13.06,7.6c6,0,7.61-8,7.61-13.56V36.3C58.79,38.62,51,40.85,51,49,51,54.08,54,56.72,57.63,56.72Z"/><path class="cls-1" d="M85.91,19.6V19c2.9,0,7.36.91,8.19,5.87,2.4-5.21,9-9,17-4l-.25.58c-9.84-4.3-16.7,4.88-16.7,14.55V49.86c0,3.56.33,7.44,2.07,7.44v.58c-3.14,0-8.27-1.07-8.27-7.44V27C88,23.48,87.65,19.6,85.91,19.6Z"/><path class="cls-1" d="M119.81,19.6V19c2.9,0,7.36.91,8.19,5.87,2.4-5.21,9-9,17-4l-.24.58c-9.84-4.3-16.71,4.88-16.71,14.55V49.86c0,3.56.33,7.44,2.07,7.44v.58c-3.14,0-8.27-1.07-8.27-7.44V27C121.88,23.48,121.55,19.6,119.81,19.6Z"/><path class="cls-1" d="M152.48,49.12c0-9.18,13.47-11.91,20.67-13.65V30.59c0-5.95-1.24-11.16-6.45-11.16A11.28,11.28,0,0,0,156,26.62l-.58-.41a11.91,11.91,0,0,1,11.57-7.61c6.29,0,12.41,3.89,12.41,11.75V49.86c0,3.56.33,7.44,2.07,7.44v.58c-2.82,0-7.2-.83-8.11-5.54-2.15,3.06-5.12,5.95-10.5,5.95C156.2,58.29,152.48,53.91,152.48,49.12Zm13.06,7.6c6,0,7.61-8,7.61-13.56V36.3c-6.45,2.32-14.23,4.55-14.23,12.73C158.92,54.08,161.9,56.72,165.54,56.72Z"/><path class="cls-1" d="M190.92,64.5c0-4.47,6.62-6.87,13.07-6.62v.58a6.76,6.76,0,0,0-6.45,6.86c0,5.13,4,8,10.91,8,7.78,0,11.08-4.88,11.08-9.67C219.53,50.77,198,58.13,198,48c1.81-.91,5.37-3.39,7.85-4.71-8.76-.75-13.15-5.71-13.15-12.49,0-9.18,8.27-12.16,16.13-12.16,2-3.39,8.35-7.52,13.23-7.52,3,0,4.88,1.32,4.88,4.46a24.29,24.29,0,0,0-6.87-1c-4.05,0-7.85,1.16-10.09,4.14,8.6.66,13.73,6.28,13.73,12.07,0,7.36-5,12.57-15.46,12.57h-1.08c-1.73,1.07-3.63,2.81-3.63,3.55,0,4.55,22.16-.16,22.16,14.72,0,7.53-5.63,13-17.29,13C197.79,74.58,190.92,70.78,190.92,64.5Zm8.44-33.74c0,6.7,2.64,11.33,8.93,11.33s8.85-4.63,8.85-11.33c0-5.62-3.31-10.92-8.93-10.92C202.42,19.84,199.36,24.14,199.36,30.76Z"/><path class="cls-1" d="M253.85,18.6c11.49,0,18.27,9.51,18.27,19.6,0,11.83-5.87,20.09-18.19,20.09S235.66,50,235.66,38.2,242.35,18.6,253.85,18.6Zm.08,38.45c8.35,0,11.58-7.69,11.58-18.85,0-9.51-4.3-18.36-11.74-18.36s-11.5,7.28-11.5,18.36S245.58,57.05,253.93,57.05Z"/><path class="cls-1" d="M283.29,19.6V19c2.89,0,7.52.91,8.18,6.2,3.72-3.8,7.36-6.62,12.32-6.62,6.95,0,10.5,3.56,10.5,8.77V49.86c0,3.56.33,7.44,2.07,7.44v.58c-3.14,0-8.27-1.07-8.27-7.44V28c0-5.7-2.89-8.19-5.79-8.19-7,0-10.75,10-10.75,16.21V49.86c0,3.56.34,7.44,2.07,7.44v.58c-3.14,0-8.27-1.07-8.27-7.44V27C285.35,23.48,285,19.6,283.29,19.6Z"/><path class="cls-1" d="M327.52,49.12c0-9.18,13.48-11.91,20.67-13.65V30.59c0-5.95-1.24-11.16-6.45-11.16A11.27,11.27,0,0,0,331,26.62l-.58-.41A11.91,11.91,0,0,1,342,18.6c6.29,0,12.41,3.89,12.41,11.75V49.86c0,3.56.33,7.44,2.06,7.44v.58c-2.81,0-7.19-.83-8.1-5.54-2.15,3.06-5.13,5.95-10.5,5.95C331.24,58.29,327.52,53.91,327.52,49.12Zm13.07,7.6c6,0,7.6-8,7.6-13.56V36.3C341.74,38.62,334,40.85,334,49,334,54.08,337,56.72,340.59,56.72Z"/></g></g></svg>