<svg xmlns="http://www.w3.org/2000/svg" viewBox="0 0 319.17 115.31"><defs><style>.cls-1{fill:#fff;}</style></defs><g id="Capa_2" data-name="Capa 2"><g id="Tect"><rect class="cls-1" x="146.59" y="84.38" width="26.66" height="26.66" rx="3" transform="translate(115.93 -84.46) rotate(45)"/><path class="cls-1" d="M0,.41H43.25V2.07H22.33a6.36,6.36,0,0,1,2.81,5.7v42.5c0,3.56.33,7.45,2.06,7.45v.57c-3.14,0-9.09-1.07-9.09-7.44V8.35a19.1,19.1,0,0,0-.75-6.28H0Z"/><path class="cls-1" d="M62.76,19C74.25,19,81,28.53,81,38.61c0,11.83-5.87,20.1-18.19,20.1s-18.27-8.27-18.27-20.1S51.27,19,62.76,19Zm.08,38.45c8.35,0,11.58-7.69,11.58-18.86,0-9.5-4.3-18.35-11.74-18.35s-11.5,7.27-11.5,18.35S54.49,57.47,62.84,57.47Z"/><path class="cls-1" d="M92.2,19.43c3.14,0,8.27,1.08,8.27,7.44V49.28c0,5.71,2.89,8.19,5.78,8.19,7,0,10.75-10,10.75-16.21V27.45c0-3.55-.33-7.44-2.06-7.44v-.58c3.14,0,8.27,1.08,8.27,7.44v23.4c0,3.56.33,7.45,2.06,7.45v.57c-2.89,0-7.52-.91-8.18-6.11-3.64,3.72-7.36,6.53-12.32,6.53-7,0-10.5-3.56-10.5-8.77V27.45c0-3.55-.34-7.44-2.07-7.44Z"/><path class="cls-1" d="M145.94,50.27c0,3.56.33,7.45,2.07,7.45v.57c-3.14,0-8.27-1.07-8.27-7.44V8c0-3.56-.33-7.44-2.06-7.44V0c3.14,0,8.26,1.07,8.26,7.44Z"/><path class="cls-1" d="M177.36,19c11.5,0,18.28,9.51,18.28,19.59,0,11.83-5.87,20.1-18.19,20.1s-18.28-8.27-18.28-20.1S165.87,19,177.36,19Zm.09,38.45c8.35,0,11.57-7.69,11.57-18.86,0-9.5-4.3-18.35-11.74-18.35s-11.49,7.27-11.49,18.35S169.1,57.47,177.45,57.47Z"/><path class="cls-1" d="M206.8,19.43c3.14,0,8.27,1.08,8.27,7.44V49.28c0,5.71,2.89,8.19,5.79,8.19,7,0,10.75-10,10.75-16.21V27.45c0-3.55-.33-7.44-2.07-7.44v-.58c3.14,0,8.27,1.08,8.27,7.44v23.4c0,3.56.33,7.45,2.07,7.45v.57c-2.9,0-7.53-.91-8.19-6.11-3.64,3.72-7.36,6.53-12.32,6.53-7,0-10.5-3.56-10.5-8.77V27.45c0-3.55-.33-7.44-2.07-7.44Z"/><path class="cls-1" d="M251.62,51.51c2.64,3.56,7.44,5.54,12.23,5.54,5.54,0,9.26-2.64,9.26-7,0-11.17-20.67-6.62-20.67-19.68C252.44,24,257.65,19,265.59,19c5,0,8.68,1.9,11.91,5.87l-.58.41a13.53,13.53,0,0,0-10.5-4.63c-5.21,0-8.6,2.65-8.6,7,0,11.08,20.67,6.37,20.67,19.84,0,6.21-4.8,11.17-13,11.17-6,0-11.5-2.73-14.47-6.78Z"/><path class="cls-1" d="M305.2,19c9.59,0,14,7.36,14,16.12H294.7a23.77,23.77,0,0,0-.09,2.57c0,10.66,4.3,17,11.91,17,4.71,0,8.6-2.56,11.91-6.12l.49.41c-3.47,5.3-8.93,9.68-15.79,9.68-9.26,0-14.72-7.44-14.72-19.27S294.61,19,305.2,19ZM315.45,33.9c-.33-7.69-3.39-13.64-10.42-13.64-5.87,0-9.43,5.29-10.25,13.64Z"/></g></g></svg>