<?xml version="1.0" encoding="UTF-8"?>
<svg width="32px" height="32px" viewBox="0 0 32 32" version="1.1" xmlns="http://www.w3.org/2000/svg" xmlns:xlink="http://www.w3.org/1999/xlink">
    <title>Group 13</title>
    <g id="Page-1" stroke="none" stroke-width="1" fill="none" fill-rule="evenodd" stroke-linecap="round" stroke-linejoin="round">
        <g id="Inici" transform="translate(-1766.000000, -35.000000)" stroke="#FFFFFF" stroke-width="1.70138085">
            <g id="Group-13" transform="translate(1767.000000, 36.000000)">
                <polyline id="Stroke-1" points="0 0 4.14116099 0 8.56049775 17.1344488"></polyline>
                <path d="M4.98079244,3.28033297 L26.9337095,3.28033297 C28.9268772,3.28033297 30.3909154,5.13268309 29.9068726,7.0447322 L27.9477325,14.790465 C27.5989495,16.1677457 26.3475838,17.1347011 24.9116184,17.1347011 L8.56049775,17.1347011" id="Stroke-3"></path>
                <path d="M8.55803074,22.1292357 C7.16289845,22.1292357 6.03148018,21.0109308 6.03148018,19.6319684 C6.03148018,18.253006 7.16289845,17.1347011 8.55803074,17.1347011" id="Stroke-5"></path>
                <path d="M13.5936076,27.501051 C13.5936076,28.8816951 12.4613387,30 11.0653557,30 C9.66937271,30 8.53710376,28.8816951 8.53710376,27.501051 C8.53710376,26.120407 9.66937271,25.0012612 11.0653557,25.0012612 C12.4613387,25.0012612 13.5936076,26.120407 13.5936076,27.501051 Z" id="Stroke-7"></path>
                <path d="M26.0839549,27.501051 C26.0839549,28.8816951 24.9516859,30 23.5557029,30 C22.1588693,30 21.027451,28.8816951 21.027451,27.501051 C21.027451,26.120407 22.1588693,25.0012612 23.5557029,25.0012612 C24.9516859,25.0012612 26.0839549,26.120407 26.0839549,27.501051 Z" id="Stroke-9"></path>
                <line x1="8.56092309" y1="22.1317582" x2="28.6942134" y2="22.1317582" id="Stroke-11"></line>
            </g>
        </g>
    </g>
</svg>